# xmcd
#
# Track frame offsets: 
#        150
#        12422
#        24993
#        37051
#        50701
#        63158
#        73857
#        81307
#        92916
#        104606
#        114716
#        125119
#        139761
#        152685
#        161994
#        174597
#        188255
#        200250
#        210059
#        222743
#        230809
#        238953
#        255185
#        266603
#        278987
#        289407
#        300140
#        309791
#        323346
#        330979
#
# Disc length: 4570 seconds
#
# Revision: 0
# Processed by: cddbd v1.5.2PL0 Copyright (c) Steve Scherf et al.
# Submitted via: ExactAudioCopy v0.99pb5
#
DISCID=b211d81e
DTITLE=Various Artist - Shim Sham Shimmy
DYEAR=2007
DGENRE=Boogie
TTITLE0=Champion Jack Dupree - Shim Sham Shimmy
TTITLE1=Charles Sheffield - Isabella
TTITLE2=Joe Hill Louis - She's Taking All My Money
TTITLE3=Ramblin Hi Harris - I Haven't Got A Home
TTITLE4=Doctor Ross - Texas Hop
TTITLE5=Bobo Jenkins - Nothing But Love
TTITLE6=Clarence Lockley - Crowley Blues
TTITLE7=B.Brown and Mc Vouts - Good Woman Blues
TTITLE8=Wright Holmes - Good Road Blues
TTITLE9=Gunter Lee Carr Aka Cecil Gant - We're Gonna Rock
TTITLE10=Albert Collins and The Rhythm Rockers - Freeze
TTITLE11=Moses Williams - Which Way Did My Baby Go
TTITLE12=Haskel Sadler - Do Right Mind
TTITLE13=Larry Dale - You Better Heed My Warning
TTITLE14=Baby Boy Warren - Santa Fee
TTITLE15=Eddie Snow - I'm Off That Stuff
TTITLE16=Guitar Slim Green/Shake Em Up
TTITLE17=Slim Gaillard - Fuck Off
TTITLE18=Blue Charlie Morris - I'm Gonna Kill That Hen
TTITLE19=Sammy Myers - Rhythm With Me
TTITLE20=Willie Egan - Can't Understand It
TTITLE21=W. Harris/Low Down Dirty Shame
TTITLE22=Jake Jackson - Life Get's Hard
TTITLE23=Morris Pejoe - Screamin 'n' Cryin
TTITLE24=Homesick James - Dirty Rat
TTITLE25=Papa George Lighfoot - P.I. Blues
TTITLE26=Pat Hare - Bonus Pay
TTITLE27=Big John and The Dallas Playboys - Sent For You Yesterday
TTITLE28=Lonnie Johnson - Can't Sleep Anymore
TTITLE29=Bob Kelly - Malinda
EXTD=
EXTT0=
EXTT1=
EXTT2=
EXTT3=
EXTT4=
EXTT5=
EXTT6=
EXTT7=
EXTT8=
EXTT9=
EXTT10=
EXTT11=
EXTT12=
EXTT13=
EXTT14=
EXTT15=
EXTT16=
EXTT17=
EXTT18=
EXTT19=
EXTT20=
EXTT21=
EXTT22=
EXTT23=
EXTT24=
EXTT25=
EXTT26=
EXTT27=
EXTT28=
EXTT29=
PLAYORDER=
